<?xml version="1.0" encoding="UTF-8"?> <svg xmlns="http://www.w3.org/2000/svg" xmlns:xlink="http://www.w3.org/1999/xlink" id="Layer_1" data-name="Layer 1" viewBox="0 0 173.87 48"><defs><style>.cls-1{fill:#002957;}.cls-2{fill:url(#linear-gradient);}</style><linearGradient id="linear-gradient" x1="26.99" y1="38.34" x2="26.99" y2="4.95" gradientUnits="userSpaceOnUse"><stop offset="0" stop-color="#008145"></stop><stop offset="0.23" stop-color="#2d994f"></stop><stop offset="0.46" stop-color="#53ac57"></stop><stop offset="0.67" stop-color="#6eba5c"></stop><stop offset="0.86" stop-color="#7ec360"></stop><stop offset="1" stop-color="#84c661"></stop></linearGradient></defs><path class="cls-1" d="M21.54-.06a.47.47,0,0,0-.47.46V4.62A.47.47,0,0,1,20.7,5a20.12,20.12,0,0,0-2.06.55.46.46,0,0,1-.53-.17L15.62,1.9a.44.44,0,0,0-.57-.13L10.28,4.53a.43.43,0,0,0-.18.56L11.89,9a.47.47,0,0,1-.11.55,16.45,16.45,0,0,0-1.51,1.5.49.49,0,0,1-.55.12l-3.9-1.8a.45.45,0,0,0-.57.18L2.5,14.32a.44.44,0,0,0,.13.58l3.51,2.49a.49.49,0,0,1,.17.53,16.79,16.79,0,0,0-.55,2,.47.47,0,0,1-.42.37l-4.28.4a.44.44,0,0,0-.4.44v5.51a.44.44,0,0,0,.4.44l4.28.4a.47.47,0,0,1,.42.37A17.15,17.15,0,0,0,6.31,30a.49.49,0,0,1-.18.54L2.63,33a.44.44,0,0,0-.13.58l2.75,4.77a.45.45,0,0,0,.57.18l3.91-1.8a.48.48,0,0,1,.54.12,19.56,19.56,0,0,0,1.51,1.51.46.46,0,0,1,.11.54L10.1,42.78a.42.42,0,0,0,.18.56l4.77,2.76a.44.44,0,0,0,.57-.13l2.49-3.51a.46.46,0,0,1,.53-.17,19,19,0,0,0,2.06.55.47.47,0,0,1,.37.42l.4,4.28a.45.45,0,0,0,.44.4h5.51a.45.45,0,0,0,.43-.4l.4-4.29a.47.47,0,0,1,.38-.41,19.93,19.93,0,0,0,2.05-.55.47.47,0,0,1,.53.17L33.7,46a.45.45,0,0,0,.58.13l4.77-2.76a.44.44,0,0,0,.18-.56l-1.8-3.91a.46.46,0,0,1,.12-.55,17.69,17.69,0,0,0,1.5-1.5.47.47,0,0,1,.55-.11l3.91,1.79a.44.44,0,0,0,.56-.18l2.75-4.77A.44.44,0,0,0,46.7,33l-3.51-2.48A.47.47,0,0,1,43,30c.22-.68.4-1.36.55-2.05a.47.47,0,0,1,.41-.37h4.21a.47.47,0,0,0,.47-.47V23.94a24,24,0,0,0-24-24Z" transform="translate(-0.66 0.06)"></path><path class="cls-2" d="M26.33,5a.39.39,0,0,0-.41.38V9.05a.48.48,0,0,1-.48.48H24.21a14.36,14.36,0,0,0-10.66,5.23,14.44,14.44,0,0,0-2.64,4.88,14.47,14.47,0,0,0-.65,4.29h0A14.41,14.41,0,0,0,24.66,38.34h0a8.41,8.41,0,0,0,8.4-8.4,6,6,0,0,0-6-6,4.21,4.21,0,0,0-4.2,4.2A2.86,2.86,0,0,0,25.71,31a1.84,1.84,0,0,0,1.81-1.52.35.35,0,0,1,.42-.28A1.72,1.72,0,0,1,28.81,32a4.23,4.23,0,0,1-3.1,1.35,5.26,5.26,0,0,1-5.25-5.25,6.62,6.62,0,0,1,6.6-6.61,8.35,8.35,0,0,1,5.59,2.14,1.06,1.06,0,0,0,.74.27h9.89a.45.45,0,0,0,.45-.46A19.07,19.07,0,0,0,26.33,5Z" transform="translate(-0.66 0.06)"></path><path class="cls-1" d="M36.55,21.6A2.64,2.64,0,1,1,39.19,19,2.65,2.65,0,0,1,36.55,21.6Z" transform="translate(-0.66 0.06)"></path><path class="cls-1" d="M83.38,11.87l0,20.06H78.51V19.39L74.17,31.94H69.94L65.56,19.38V32H60.68l0-20h6l5.48,14,5.32-14Z" transform="translate(-0.66 0.06)"></path><path class="cls-1" d="M97.17,16.75a7.24,7.24,0,0,1,2.94,2.84,8.5,8.5,0,0,1,1.08,4.34,8.5,8.5,0,0,1-1.07,4.35,7.12,7.12,0,0,1-2.94,2.84,9.57,9.57,0,0,1-8.5,0,7.26,7.26,0,0,1-3-2.83A8.6,8.6,0,0,1,84.65,24a8.59,8.59,0,0,1,1.06-4.34,7.25,7.25,0,0,1,3-2.85,9.66,9.66,0,0,1,8.5,0ZM90.57,21A4.1,4.1,0,0,0,89.62,24a4,4,0,0,0,1,2.91,3.26,3.26,0,0,0,4.7,0,4.1,4.1,0,0,0,.94-2.92,4.15,4.15,0,0,0-1-2.93,3.23,3.23,0,0,0-4.7,0Z" transform="translate(-0.66 0.06)"></path><path class="cls-1" d="M110.25,16.64a6,6,0,0,1,3.13-.86V21H112a4.86,4.86,0,0,0-3,.83,3.34,3.34,0,0,0-1.07,2.8V31.9H103L103,16h4.88v3A6.86,6.86,0,0,1,110.25,16.64Z" transform="translate(-0.66 0.06)"></path><path class="cls-1" d="M128.19,16.72a6.83,6.83,0,0,1,2.47,2.82,9.84,9.84,0,0,1,.9,4.36,10,10,0,0,1-.89,4.34,6.76,6.76,0,0,1-2.46,2.85,6.43,6.43,0,0,1-3.53,1,5.7,5.7,0,0,1-3.14-.83A4.78,4.78,0,0,1,119.62,29l0,10.48h-4.89l0-23.54h4.89v2.89a4.8,4.8,0,0,1,1.91-2.26,5.82,5.82,0,0,1,3.15-.83A6.31,6.31,0,0,1,128.19,16.72Zm-7.62,4.35a4,4,0,0,0-1,2.84,4,4,0,0,0,1,2.83,3.59,3.59,0,0,0,5,0,4,4,0,0,0,1-2.85,4,4,0,0,0-1-2.86,3.28,3.28,0,0,0-2.53-1A3.32,3.32,0,0,0,120.57,21.07Z" transform="translate(-0.66 0.06)"></path><path class="cls-1" d="M147.85,17.57a7.28,7.28,0,0,1,1.62,5v9.26H144.6V23.17a3.52,3.52,0,0,0-.85-2.5,2.92,2.92,0,0,0-2.24-.9,3.06,3.06,0,0,0-2.36.95,3.82,3.82,0,0,0-.87,2.69v8.45H133.4l0-21.14h4.89v8.11a5.16,5.16,0,0,1,2-2.25,5.9,5.9,0,0,1,3.18-.84A5.53,5.53,0,0,1,147.85,17.57Z" transform="translate(-0.66 0.06)"></path><path class="cls-1" d="M156.86,15.9l0,15.94H152l0-15.95h4.88Z" transform="translate(-0.66 0.06)"></path><path class="cls-1" d="M171.89,17.38a7.53,7.53,0,0,1,2.64,4.67h-5.17a2.74,2.74,0,0,0-1-1.6,2.77,2.77,0,0,0-1.8-.57,2.61,2.61,0,0,0-2.11,1,4.62,4.62,0,0,0-.83,3,4.54,4.54,0,0,0,.84,3,2.61,2.61,0,0,0,2.11,1,2.81,2.81,0,0,0,1.8-.57,2.71,2.71,0,0,0,.94-1.6h5.17a7.51,7.51,0,0,1-2.62,4.67A7.88,7.88,0,0,1,166.74,32a8.66,8.66,0,0,1-4.16-1,7,7,0,0,1-2.84-2.84,8.79,8.79,0,0,1-1-4.34,9,9,0,0,1,1-4.36,7,7,0,0,1,2.84-2.83,8.62,8.62,0,0,1,4.17-1A7.87,7.87,0,0,1,171.89,17.38Z" transform="translate(-0.66 0.06)"></path><path class="cls-1" d="M154.5,14.15a2.64,2.64,0,1,1,2.64-2.64A2.65,2.65,0,0,1,154.5,14.15Z" transform="translate(-0.66 0.06)"></path></svg> 